<svg xmlns="http://www.w3.org/2000/svg" width="1080" height="720" viewBox="0 0 1080 720"><g fill="#FFF"><path d="M721.266 375.02c2.897 6.464 9.212 8.694 14.71 8.694 8.618 0 14.71-4.607 14.71-11.145 0-7.356-5.72-9.66-13.818-11.442-4.755-1.04-8.544-1.932-8.544-5.2 0-2.675 2.675-5.202 8.1-5.202 3.564 0 7.28 1.857 9.062 5.424l5.275-3.343c-3.045-5.72-8.47-8.024-14.338-8.024-8.916 0-14.488 5.052-14.488 11.144 0 7.28 6.612 9.732 13.894 11.145 4.755.89 8.544 2.154 8.544 5.498 0 3.193-3.418 5.2-8.396 5.2-3.64 0-7.578-1.708-9.436-6.093l-5.274 3.344zm-25.783 2.527c-7.43 0-12.854-5.87-12.854-13.3 0-7.428 5.423-13.297 12.853-13.297s12.853 5.87 12.853 13.298c0 7.43-5.423 13.3-12.853 13.3zm0-32.763c-10.773 0-19.466 8.692-19.466 19.464 0 10.773 8.692 19.467 19.466 19.467 10.772 0 19.465-8.693 19.465-19.467 0-10.772-8.692-19.464-19.465-19.464zm-42.72 27.712c0 7.875 3.492 10.77 10.253 10.77 2.377 0 4.53-.222 6.687-.667v-5.573c-2.972.37-3.64.37-6.315.37-3.12 0-4.234-1.634-4.234-4.53v-21.545h10.178v-5.572h-10.178V335.2h-6.39v10.55h-7.355v5.572h7.354v21.174zm-21.696 10.4h6.538V360.98c0-9.584-3.79-16.196-14.488-16.196-4.605 0-9.063 1.857-11.812 5.87v-4.904h-6.167v37.147h6.39v-17.31c0-3.345.372-7.58 2.154-10.402 1.932-2.972 5.2-4.458 8.693-4.458 6.687 0 8.692 4.16 8.692 10.253v21.916zm-43.835-17.755v2.675c0 5.127-5.052 9.732-11.145 9.732-4.903 0-7.652-2.154-7.652-5.424 0-2.6 1.857-4.977 5.944-5.496l12.852-1.486zm0-8.246c0 1.486-1.04 2.6-2.75 2.75l-11.218 1.04c-5.795.594-11.366 4.31-11.366 11.44 0 6.612 5.2 11.44 13.075 11.44 5.127 0 9.882-2.377 12.26-6.018v5.35h6.39v-24.22c0-8.618-4.904-13.893-15.454-13.893-8.917 0-13.598 3.938-15.01 9.436l5.796 3.12c.817-4.607 4.458-6.836 9.807-6.836 5.2 0 8.47 2.303 8.47 5.498v.892zm-62.26 18.127c2.898 6.464 9.213 8.694 14.71 8.694 8.62 0 14.712-4.607 14.712-11.145 0-7.356-5.72-9.66-13.82-11.442-4.754-1.04-8.543-1.932-8.543-5.2 0-2.675 2.676-5.202 8.1-5.202 3.565 0 7.28 1.857 9.063 5.424l5.275-3.343c-3.046-5.72-8.47-8.024-14.34-8.024-8.915 0-14.487 5.052-14.487 11.144 0 7.28 6.613 9.732 13.895 11.145 4.755.89 8.544 2.154 8.544 5.498 0 3.193-3.42 5.2-8.397 5.2-3.64 0-7.578-1.708-9.436-6.093l-5.274 3.344zm-66.122-13.965c1.04-6.167 5.497-10.328 11.664-10.328 6.092 0 9.955 4.16 10.698 10.328H458.85zm23.402 10.697c-2.823 3.344-6.24 6.018-11.738 6.018-6.39 0-11.813-4.31-12.11-11.59h29.792v-1.932c-.074-10.995-6.983-19.464-17.682-19.464-11.516 0-18.5 9.064-18.5 19.464 0 11.59 7.802 19.467 18.5 19.467 7.578 0 11.738-2.898 15.23-6.762l-3.492-5.2zm-40.94-26.002l-11.886 28.752-11.888-28.752h-6.983l16.345 37.147h5.052l16.345-37.147h-6.984zm-44.205 19.39v2.675c0 5.127-5.052 9.732-11.145 9.732-4.903 0-7.652-2.154-7.652-5.424 0-2.6 1.857-4.977 5.944-5.496l12.853-1.486zm0-8.246c0 1.486-1.04 2.6-2.75 2.75l-11.218 1.04c-5.796.594-11.367 4.31-11.367 11.44 0 6.612 5.2 11.44 13.075 11.44 5.127 0 9.882-2.377 12.26-6.018v5.35h6.39v-24.22c0-8.618-4.904-13.893-15.454-13.893-8.916 0-13.597 3.938-15.008 9.436l5.795 3.12c.818-4.607 4.46-6.836 9.808-6.836 5.2 0 8.47 2.303 8.47 5.498v.892zm-53.642 20.727c-7.503 0-12.48-5.57-12.48-13.446 0-7.875 4.978-13.447 12.48-13.447 7.802 0 12.333 5.275 12.333 13.447 0 8.174-4.53 13.447-12.333 13.447zm-.668-32.836c-10.922 0-18.426 7.504-18.426 19.39 0 11.89 7.505 19.39 18.427 19.39 5.2 0 10.252-2.376 12.556-6.017v5.35h6.39V330.89h-6.39v19.912c-2.453-3.64-7.207-6.018-12.556-6.018z"/><path d="M260.38 254.58c-.99 0-1.8.81-1.8 1.8v175.788c0 .99.81 1.8 1.8 1.8h527.433c.204 0 .37-.81.37-1.8V256.38c0-.99-.81-1.8-1.8-1.8H260.38zm519.287 6.716c.99 0 1.8.81 1.8 1.8v20.64c0 .99-.81 1.8-1.8 1.8h-483.58c-.99 0-2.374-.573-3.074-1.273L271.32 262.57c-.7-.7-.463-1.273.527-1.273h507.82zM267.097 427.25c-.99 0-1.8-.81-1.8-1.8V267.844c0-.99.573-1.227 1.273-.527l21.694 21.694c.7.7 1.273 2.083 1.273 3.073V425.45c0 .99-.81 1.8-1.8 1.8h-20.64zm30.957 0c-.99 0-1.8-.81-1.8-1.8v-131.4c0-.99.81-1.8 1.8-1.8h480.872c.99 0 1.8.81 1.8 1.8v131.4c0 .99-.81 1.8-1.8 1.8H298.054z"/><path d="M821.495 222.273c-.7-.7-2.082-1.273-3.072-1.273H226.8c-.99 0-1.8.81-1.8 1.8v241.872c0 .99.573 2.373 1.273 3.072l32.11 32.11c.7.7 2.083 1.272 3.073 1.272h592.088c.99 0 1.8-.81 1.8-1.8V257.923c0-.99-.572-2.373-1.272-3.073l-32.577-32.577zm-589.778 7.243c0-.99.81-1.8 1.8-1.8h579.73c.99 0 1.8.81 1.8 1.8v229.516c0 .99-.81 1.8-1.8 1.8h-579.73c-.99 0-1.8-.81-1.8-1.8V229.516zm32.52 264.894c-.99 0-2.373-.572-3.073-1.27l-24.318-24.32c-.7-.7-.463-1.272.527-1.272h577.842c.99 0 2.373.572 3.072 1.273l24.32 24.32c.7.698.462 1.27-.528 1.27H264.236zm584.39-6.547c0 .99-.572 1.227-1.272.527l-24.318-24.318c-.7-.7-1.272-2.082-1.272-3.072V233.838c0-.99.572-1.227 1.272-.527l24.318 24.32c.7.7 1.272 2.084 1.272 3.074v227.16z"/></g></svg>