<svg xmlns="http://www.w3.org/2000/svg" width="1080" height="720" viewBox="0 0 1080 720"><g fill-rule="evenodd" clip-rule="evenodd" fill="#FFF"><path d="M543.44 339.84c1-5.468.866-18.508.866-18.508s-5.06 11.88-7.383 17.64c3.79.23 3.66 1.233 6.518.868z"/><path d="M540 185.62c-96.308 0-174.38 78.072-174.38 174.38 0 96.31 78.072 174.38 174.38 174.38 96.31 0 174.38-78.07 174.38-174.38S636.31 185.62 540 185.62zm5.646 111.457c3.195-1.162 5.48.89 7.053 2.646-.636 23.6-.687 42.48-4.41 65.244-.743 4.555-1.71 12.75-4.407 13.668-5.532 1.883-5.82-5.93-4.41-11.463.294-1.137 1.348-2.22 1.763-3.525 1.783-5.592 2.002-17.44 2.002-17.44l-8.84-1.265s-3.74 8.45-6.386 13.854c-2.842 5.81-5.43 16.547-12.413 11.204.16-6.766 20.865-45.607 30.046-72.923zm1.727 125.693c-1.414 3.346-7.466 3.66-7.084-1.65 1.653-3.17 6.905-2.436 7.083 1.65zm-12.477-2.186c-2.637 2.54-6.53 1.844-7.04-1.95 2.387-2.288 7.574-3.874 7.04 1.95zM486.573 313.39c-.21 16.843-8.817 51.577-8.817 51.577s2.938.398 3.835 1.906c.54.904-.363 2.027-1.11 4.207-3.99 2.133-20.96-.812-20.357-5.674.4-3.205 4.93-2.605 8.816-2.2 5.27-15.298 9.472-31.44 8.816-48.494-1.052-1.593-5.072-.21-6.078-1.854 0-1.177.61-4.76.61-4.76s18.8-5.954 20.898 0c1.068 3.037-3.296 4.642-6.613 5.29zm72.745 119.87c-.848 1.22-2.098 2.135-3.176 3.13-4.393 4.046-8.605 7.835-14.092 10.423-5.363 2.527-11.64 3.61-17.394 1.797-4.167-1.307-7.396-4.486-9.657-8.137-1.25-2.014-2.233-4.19-3.01-6.43-.38-1.094-1.026-2.49-1.072-3.654-.036-.905.91-2.306 1.78-2.593.045-.016.094-.027.145-.033.893-.164 2.276.62 3.096 1.082 1.81 1.018 3.183 2.51 4.288 4.256 2.165 3.412 3.586 6.973 7.666 8.5 3.972 1.498 10.603.55 14.547-1.617 1.786-.977 3.364-2.6 4.774-4.04 2.455-2.5 5.072-6.507 8.477-7.774 3.84-1.436 5.814 1.928 3.628 5.09zm63.916-126.48c-4.145 17.36-8.684 38.074-11.902 55.544-1.19 6.467-2.275 11.096-2.645 16.752-.303 4.6.684 8.984-3.086 9.7-2.308.437-3.286-1.673-5.288-2.208.178-11.69 4.648-24.44 7.05-37.03 1.077-5.615 9.24-47.188 9.24-47.188s-13.093 17.68-21.58 46.306c-1.515 5.102-3.632 16.953-11.462 14.107-.6-1.314-.97-2.855-2.205-3.527 1.475-10.422 2.428-20.495 2.98-31.17-4.742 6.695-16.55 39.45-18.854 47.923-2.66.925-5.304-.085-7.05-1.32-1.62-2.655.662-4.605 1.766-7.5 4.295-11.322 7.842-20.546 14.104-34.825 2.2-5.02 4.555-11.094 7.055-17.634 2.543-6.66 4.662-23.31 13.225-15.43.652 11.478-3.002 37.082-2.207 35.216 5.54-13.002 16.062-37.88 27.334-47.118 1.322-1.083 4.357-1.078 6.172.88 1.72 5.742-1.142 12.224-2.646 18.52z"/></g></svg>