<?xml version="1.0" encoding="utf-8"?>
<!-- Generator: Adobe Illustrator 16.0.0, SVG Export Plug-In . SVG Version: 6.00 Build 0)  -->
<!DOCTYPE svg PUBLIC "-//W3C//DTD SVG 1.1//EN" "http://www.w3.org/Graphics/SVG/1.1/DTD/svg11.dtd">
<svg version="1.1" id="Layer_1" xmlns="http://www.w3.org/2000/svg" xmlns:xlink="http://www.w3.org/1999/xlink" x="0px" y="0px"
	 width="977.706px" height="133.412px" viewBox="0 0 977.706 133.412" enable-background="new 0 0 977.706 133.412"
	 xml:space="preserve">
<g>
	<path d="M173.635,46.776c0,32.761-17.655,45.684-86.271,45.684h-13.65v33.671c0,2.366-1.274,3.64-3.64,3.64H3.64
		c-2.366,0-3.64-1.274-3.64-3.64V6.006c0-2.366,1.274-3.64,3.64-3.64h83.723C155.98,2.366,173.635,12.194,173.635,46.776z
		 M102.106,49.506c0-5.824-2.548-9.828-14.743-9.828h-13.65v20.931h13.65C99.558,60.608,102.106,55.876,102.106,49.506z"/>
	<path d="M362.55,6.734L304.854,93.37v32.761c0,2.366-1.274,3.64-3.64,3.64h-70.801c-2.366,0-3.64-1.274-3.64-3.64V92.642
		L168.895,6.734c-1.638-2.366-0.546-4.368,2.366-4.368h72.984c2.002,0,3.458,0.728,4.187,2.73l12.922,31.305l4.368,13.104
		l4.368-13.104l12.923-31.305c0.729-2.002,2.184-2.73,4.187-2.73h72.984C363.096,2.366,364.188,4.368,362.55,6.734z"/>
	<path d="M591.324,6.006v120.125c0,2.366-1.274,3.64-3.641,3.64h-55.694c-2.366,0-3.458-1.092-3.458-3.64l2.912-82.085
		l-8.008,43.863c0,0-6.188,28.029-9.101,38.768c-0.546,2.184-2.002,3.094-4.004,3.094H451.36c-2.002,0-3.458-0.91-4.004-2.912
		c-3.095-10.92-9.465-38.95-9.465-38.95l-7.28-39.859l2.912,78.081c0,2.366-1.092,3.64-3.458,3.64h-56.24
		c-2.366,0-3.64-1.274-3.64-3.64V6.006c0-2.366,1.273-3.64,3.64-3.64H464.1c2.185,0,3.458,1.274,4.005,3.276l4.731,21.294
		l6.734,47.504l1.274,17.109l1.092-17.109l6.734-47.504l4.732-21.294c0.546-2.002,1.82-3.276,4.004-3.276h90.275
		C590.049,2.366,591.324,3.64,591.324,6.006z"/>
	<path d="M781.509,94.28c0,25.663-17.654,35.491-68.07,35.491H607.875c-2.366,0-3.641-1.274-3.641-3.64V6.006
		c0-2.366,1.274-3.64,3.641-3.64h101.924c50.415,0,68.07,6.188,68.07,32.215c0,14.196-3.641,26.755-24.389,29.667
		C775.322,66.797,781.509,79.537,781.509,94.28z M698.151,36.947h-22.934v14.925h22.934c7.462,0,10.01-2.73,10.01-7.826
		C708.161,39.313,705.613,36.947,698.151,36.947z M709.981,87c0-6.006-2.548-8.554-10.011-8.554h-24.753v16.017h24.753
		C707.433,94.462,709.981,91.731,709.981,87z"/>
	<path d="M787.508,65.705C787.508,28.393,804.617,0,882.698,0c77.898,0,95.008,28.393,95.008,65.705
		c0,38.403-17.109,67.707-95.008,67.707C804.617,133.412,787.508,104.108,787.508,65.705z M900.352,65.705
		c0-20.931-3.64-27.483-17.654-27.483c-14.196,0-17.837,6.552-17.837,27.483c0,22.023,3.641,27.665,17.837,27.665
		C896.712,93.37,900.352,87.728,900.352,65.705z"/>
</g>
</svg>
