<svg xmlns="http://www.w3.org/2000/svg" width="997.3" height="166.811" viewBox="0 0 997.3 166.811"><path d="M110.114 112.691H73.097v48.731H0V5.388h108.709c41.469 0 63.022 21.789 63.022 49.435v6.793c0 27.882-20.381 51.075-61.617 51.075zM98.635 61.382c0-7.731-3.515-11.48-13.59-11.48H73.097v29.521h11.948c10.075 0 13.59-4.217 13.59-11.714v-6.327zM297.297 107.068v54.354h-72.863V106.6L160.006 5.388h80.125l26.006 46.623 24.834-46.623H363.6l-66.303 101.68zM543.754 161.422V77.314l-6.325 20.851-20.385 63.257h-60.212l-19.68-63.257-6.325-20.851v84.108h-61.852V5.388H470.42l18.742 59.743 3.75 14.292 3.981-14.292 18.511-59.743h97.931v156.034h-69.581zM746.156 161.422H632.06V5.388h111.988c39.594 0 57.635 17.103 57.635 40.062v3.046c0 15.462-11.948 29.754-37.251 34.908 27.178 4.686 37.953 17.572 37.953 34.908v3.75c0 22.257-16.867 39.36-56.229 39.36zM730.693 57.634c0-6.56-4.217-9.137-14.29-9.137h-11.246v22.96h11.246c10.073 0 14.29-2.812 14.29-9.371v-4.452zm0 47.794c0-6.794-4.217-9.606-14.29-9.606h-11.246v23.195h11.246c10.073 0 14.29-2.812 14.29-9.372v-4.217zM904.053 166.811c-58.805 0-93.713-33.503-93.713-75.44V75.206C810.34 33.034 845.248 0 904.053 0 962.625 0 997.3 33.034 997.3 75.206v16.165c0 41.936-34.675 75.44-93.247 75.44zm18.978-94.651c0-14.292-4.218-25.303-18.979-25.303-14.759 0-19.21 11.011-19.21 25.303v22.257c0 14.057 4.451 25.068 19.21 25.068 14.761 0 18.979-11.011 18.979-25.068V72.16z"/></svg>